<svg xmlns="http://www.w3.org/2000/svg" width="20" height="20" viewBox="0 0 20 20" fill="none">
  <path fill-rule="evenodd" clip-rule="evenodd" d="M1.11108 9.99997C1.11108 5.09886 5.09886 1.11108 9.99997 1.11108C14.9011 1.11108 18.8889 5.09886 18.8889 9.99997C18.8889 14.9011 14.9011 18.8889 9.99997 18.8889C5.09886 18.8889 1.11108 14.9011 1.11108 9.99997ZM16.7772 12.525C16.7428 12.2972 16.8994 12.0855 17.1272 12.0511C17.2561 12.0316 17.3761 12.0783 17.4661 12.1605C17.665 11.4739 17.7778 10.7505 17.7778 9.99997C17.7778 5.71108 14.2889 2.2222 9.99997 2.2222C8.85775 2.2222 7.77608 2.47608 6.79831 2.91942C6.74553 3.07108 6.60775 3.18553 6.4372 3.19886C6.33942 3.20664 6.25664 3.21831 6.18108 3.23164C5.97608 3.34775 5.77664 3.47164 5.58386 3.60497C5.65219 3.67219 5.70108 3.75942 5.70942 3.8622C5.72775 4.09164 5.55553 4.29275 5.32608 4.31053C4.78664 4.3522 4.60108 4.49942 4.5572 4.54331C4.50497 4.59553 4.44108 4.62442 4.37497 4.64331C3.04497 6.03942 2.2222 7.92386 2.2222 9.99997C2.2222 14.2889 5.71108 17.7778 9.99997 17.7778C12.3705 17.7778 14.4933 16.7089 15.92 15.0316C15.7944 14.9528 15.7111 14.8144 15.7216 14.6561C15.7266 14.58 15.7289 14.5028 15.7289 14.4216C15.7283 14.1783 15.7072 13.9139 15.6655 13.6366C15.6311 13.4089 15.7878 13.1972 16.0155 13.1628C16.2411 13.1261 16.455 13.285 16.4894 13.5128C16.5244 13.7411 16.5422 13.9605 16.5522 14.1733C16.6561 14.0105 16.7589 13.8466 16.8511 13.6761C16.84 13.6333 16.8305 13.5905 16.8333 13.5444C16.8383 13.4683 16.8405 13.3911 16.8405 13.31C16.84 13.0666 16.8189 12.8022 16.7772 12.525ZM9.26553 2.84834C9.48275 2.92612 9.59608 3.16389 9.51886 3.38056C9.45775 3.55167 9.2972 3.65778 9.12553 3.65778C9.07942 3.65778 9.0322 3.65 8.98608 3.63389C8.64164 3.51167 8.29942 3.41223 7.96942 3.33945C7.74442 3.29 7.60275 3.06723 7.6522 2.84278C7.70164 2.61778 7.92831 2.47834 8.14886 2.52556C8.51275 2.60612 8.88886 2.71445 9.26553 2.84834ZM11.9483 4.7194C12.0755 4.52717 12.0222 4.26884 11.8305 4.14162C11.5094 3.9294 11.1777 3.73162 10.8444 3.55162C10.6416 3.44218 10.3889 3.5194 10.28 3.72218C10.1711 3.92495 10.2472 4.17718 10.4505 4.28662C10.7616 4.45384 11.0711 4.63884 11.3705 4.83717C11.4416 4.88384 11.5211 4.90606 11.6 4.90606C11.735 4.90606 11.8677 4.84051 11.9483 4.7194ZM8.15442 3.95944C7.77775 3.82555 7.40164 3.71722 7.03775 3.63666C6.81608 3.58833 6.59053 3.72889 6.54108 3.95389C6.49164 4.17833 6.63331 4.40111 6.85831 4.45055C7.18831 4.52333 7.53053 4.62277 7.87497 4.745C7.92108 4.76111 7.96831 4.76889 8.01442 4.76889C8.18608 4.76889 8.34664 4.66277 8.4072 4.49166C8.48442 4.275 8.37108 4.03722 8.15442 3.95944ZM12.0905 6.28499C11.9172 6.13499 11.6539 6.15554 11.5033 6.33166C11.3533 6.5061 11.375 6.76943 11.55 6.91888C11.8189 7.14832 12.0855 7.39443 12.3428 7.65054C12.4239 7.73166 12.5305 7.77221 12.6366 7.77221C12.7433 7.77221 12.8505 7.73166 12.9316 7.64943C13.0939 7.4861 13.0933 7.22221 12.9305 7.05999C12.6583 6.78888 12.3755 6.52777 12.0905 6.28499ZM13.4877 8.26995C13.6683 8.12662 13.93 8.15773 14.0733 8.33773C14.3127 8.63995 14.5394 8.95107 14.7472 9.2644C14.8744 9.45607 14.8233 9.7144 14.6311 9.84162C14.5605 9.88884 14.4805 9.91162 14.4011 9.91162C14.2661 9.91162 14.1344 9.84662 14.0539 9.72551C13.8577 9.43218 13.645 9.1394 13.42 8.85551C13.2772 8.67495 13.3077 8.41273 13.4877 8.26995ZM15.6022 10.7589C15.5028 10.5517 15.2528 10.465 15.0461 10.565C14.8389 10.665 14.7522 10.9144 14.8522 11.1211C15.0094 11.4472 15.1489 11.7783 15.2672 12.105C15.3278 12.275 15.4878 12.38 15.6589 12.38C15.7061 12.38 15.7539 12.3717 15.8005 12.355C16.0172 12.2778 16.1289 12.0383 16.0511 11.8217C15.9239 11.4678 15.7728 11.1106 15.6022 10.7589ZM9.7333 4.66327C10.0666 4.84272 10.3983 5.0405 10.7194 5.25327C10.9111 5.3805 10.9644 5.63883 10.8372 5.83105C10.7566 5.95216 10.6239 6.01772 10.4889 6.01772C10.41 6.01772 10.3305 5.9955 10.2594 5.94883C9.95996 5.7505 9.65052 5.5655 9.33941 5.39827C9.13608 5.28883 9.05996 5.03661 9.16885 4.83383C9.27774 4.63105 9.53052 4.55383 9.7333 4.66327ZM13.4539 6.53942C13.535 6.62053 13.6416 6.66109 13.7478 6.66109C13.8544 6.66109 13.9616 6.62053 14.0428 6.53831C14.205 6.37498 14.2044 6.11109 14.0416 5.94887C13.7694 5.67776 13.4866 5.41664 13.2011 5.17331C13.0278 5.02387 12.7644 5.04387 12.6139 5.21998C12.4639 5.39442 12.4855 5.65776 12.6605 5.8072C12.93 6.03664 13.1966 6.28331 13.4539 6.53942ZM15.5122 8.80051C15.3772 8.80051 15.2455 8.73551 15.165 8.6144C14.9689 8.32106 14.7566 8.02773 14.5311 7.7444C14.3883 7.56384 14.4189 7.30162 14.5989 7.15884C14.7794 7.01551 15.0411 7.04662 15.1844 7.22662C15.4239 7.52884 15.6505 7.84051 15.8583 8.15329C15.9855 8.34495 15.9344 8.60329 15.7422 8.73051C15.6716 8.77773 15.5916 8.80051 15.5122 8.80051ZM16.7127 9.64777C16.6133 9.44055 16.3639 9.35499 16.1566 9.45388C15.9494 9.55388 15.8627 9.80332 15.9627 10.01C16.1211 10.3367 16.2605 10.6672 16.3783 10.9939C16.4389 11.1639 16.5989 11.2689 16.77 11.2689C16.8172 11.2689 16.865 11.2605 16.9116 11.2439C17.1283 11.1661 17.24 10.9272 17.1616 10.7105C17.0344 10.3567 16.8833 9.99943 16.7127 9.64777Z"/>
</svg>