<svg xmlns="http://www.w3.org/2000/svg" width="20" height="20" viewBox="0 0 20 20" fill="none">
  <path fill-rule="evenodd" clip-rule="evenodd" d="M6.39985 1.87812C10.8754 -0.112004 16.1369 1.90981 18.122 6.38661C19.0835 8.55578 19.1434 10.9702 18.2892 13.1855C17.435 15.4008 15.7698 17.1518 13.6003 18.116C12.4451 18.6298 11.2204 18.8878 9.99287 18.8878C8.91647 18.8878 7.83839 18.6893 6.80364 18.2917C4.58973 17.4399 2.84016 15.7762 1.87817 13.6081C0.916177 11.4384 0.856747 9.02398 1.71098 6.80866C2.56522 4.59333 4.23038 2.84232 6.39985 1.87812ZM16.6679 12.6267L17.4588 12.1612C17.8304 10.8929 17.8765 9.57058 17.5899 8.29666C17.5544 8.26441 17.5194 8.23049 17.4777 8.18322C17.1139 7.64941 16.4558 6.72858 15.812 6.05131L15.5899 5.75994C15.3816 5.37014 14.7356 4.223 13.9136 3.34499C13.9022 3.33804 13.8904 3.33192 13.8786 3.32581C13.8668 3.31969 13.855 3.31357 13.8436 3.30662C13.8455 3.30326 13.8473 3.29992 13.8492 3.2966C13.8562 3.28396 13.8631 3.27145 13.8697 3.25824C13.1815 2.86511 12.4384 2.5743 11.6636 2.4047C11.2181 2.66438 10.3644 3.10978 10.0756 3.09699C10.007 3.10621 9.89672 3.11683 9.75324 3.13064C9.07507 3.19594 7.65451 3.33271 6.37319 3.732C6.29878 3.75447 6.24208 3.77399 6.19027 3.79182C6.07542 3.83135 5.98465 3.86259 5.77834 3.89938C5.69724 3.89215 5.58616 3.77704 5.49063 3.66973C4.98853 4.02616 4.53975 4.44487 4.13873 4.90639L4.96631 7.51095C5.07184 7.76173 5.0785 8.03809 4.98131 8.29277C4.80746 8.74929 4.50698 9.52888 4.22704 10.2201C3.99377 10.795 3.31949 11.0475 2.76629 10.7672L2.24641 10.5042C2.30473 11.4083 2.51412 12.3047 2.89237 13.1571C3.55998 14.6629 4.66694 15.8835 6.0616 16.6981C6.08382 16.5563 6.10992 16.3928 6.13714 16.2299C6.21934 15.7389 6.63757 15.3713 7.13467 15.3458C8.10222 15.2957 8.86703 15.2624 9.34747 15.2696C9.56798 15.2724 9.76904 15.3419 9.94677 15.472C10.1673 15.6334 10.5065 15.827 10.8474 16.0217C11.4581 16.3704 12.0745 16.7224 12.0257 16.8983C11.9418 17.1997 11.5153 17.4821 11.1259 17.684C11.8147 17.5811 12.495 17.3909 13.1488 17.1001C13.7386 16.8377 14.2791 16.5024 14.7756 16.1165C15.5282 15.0188 16.213 13.6531 16.4641 12.9525C16.5169 12.8129 16.5607 12.7145 16.6679 12.6267ZM12.9055 5.2172C13.3148 5.20385 13.6837 5.4613 13.8125 5.85054L14.6112 8.2666C14.7334 8.63471 14.6123 9.04063 14.3085 9.28251L12.66 10.5965C12.3484 10.845 11.913 10.8662 11.5797 10.6493L9.46023 9.27139C9.12197 9.05119 8.96535 8.63693 9.07421 8.24714L9.7085 5.97176C9.81736 5.58197 10.1662 5.30728 10.5705 5.29393L12.9055 5.2172Z"/>
</svg>