<svg xmlns="http://www.w3.org/2000/svg" width="20" height="20" viewBox="0 0 20 20" fill="none">
  <path fill-rule="evenodd" clip-rule="evenodd" d="M2.77777 8.30218C2.77777 4.31996 6.01777 1.07996 9.99999 1.07996C13.9822 1.07996 17.2222 4.31996 17.2222 8.30218C17.2222 12.2844 13.9822 15.5244 9.99999 15.5244C6.01777 15.5244 2.77777 12.2844 2.77777 8.30218ZM3.88888 8.30218C3.88888 11.6716 6.63055 14.4133 9.99999 14.4133C13.37 14.4133 16.1111 11.6716 16.1111 8.30218C16.1111 4.93273 13.3694 2.19107 9.99999 2.19107C6.63055 2.19107 3.88888 4.93273 3.88888 8.30218ZM12.3283 12.68C12.3283 12.9101 12.1418 13.0966 11.9117 13.0966C11.6815 13.0966 11.495 12.9101 11.495 12.68C11.495 12.4498 11.6815 12.2633 11.9117 12.2633C12.1418 12.2633 12.3283 12.4498 12.3283 12.68ZM13.1778 11.2928C13.015 11.4556 13.015 11.7194 13.1778 11.8822C13.3405 12.045 13.6044 12.045 13.7672 11.8822C13.93 11.7194 13.93 11.4556 13.7672 11.2928C13.6039 11.13 13.3405 11.13 13.1778 11.2928ZM14.7317 7.94218C14.9478 7.86274 15.1872 7.97329 15.2667 8.1894C15.3461 8.40551 15.235 8.64496 15.0194 8.7244C14.8033 8.80385 14.5639 8.69329 14.4844 8.47718C14.405 8.26107 14.5156 8.02163 14.7317 7.94218ZM14.1639 9.83939C14.0011 10.0022 14.0011 10.2661 14.1639 10.4288C14.3267 10.5916 14.5905 10.5916 14.7533 10.4288C14.9161 10.2661 14.9161 10.0022 14.7533 9.83939C14.5905 9.67716 14.3267 9.67716 14.1639 9.83939ZM10.0006 16.6689C11.8506 16.6689 12.7172 15.9411 12.9394 15.7189C13.1561 15.5022 13.5117 15.5022 13.7283 15.7189C13.945 15.9355 13.945 16.2855 13.7283 16.5022C13.3783 16.8522 12.4061 17.63 10.5561 17.7578V18.8911H9.445V17.7578C8.08389 17.6633 6.945 17.2133 6.26167 16.4911C6.05055 16.2689 6.06167 15.9189 6.28389 15.7078C6.51167 15.4967 6.86167 15.5078 7.07278 15.73C7.62278 16.3189 8.71722 16.6689 10.0006 16.6689Z"/>
</svg>