<svg xmlns="http://www.w3.org/2000/svg" width="20" height="20" viewBox="0 0 20 20" fill="none">
  <path fill-rule="evenodd" clip-rule="evenodd" d="M15 14.4444H16.1111C16.4183 14.4444 16.6666 14.6927 16.6666 15V18.3344C16.6666 18.6416 16.4183 18.89 16.1111 18.89H3.88887C3.58165 18.89 3.33331 18.6416 3.33331 18.3344V14.9994C3.33331 14.6922 3.58165 14.4438 3.88887 14.4438H4.99998V6.11051C4.99998 5.80329 5.24831 5.55496 5.55554 5.55496H6.30498C6.49831 4.28551 7.22998 2.47496 9.03831 2.08996C9.22942 1.83829 9.58609 1.66663 9.99998 1.66663C10.6139 1.66663 11.1111 2.03996 11.1111 2.49996C11.1111 2.95996 10.6139 3.33329 9.99998 3.33329C9.60276 3.33329 9.2572 3.17607 9.06053 2.94107C7.75165 3.31663 7.30554 4.74329 7.1572 5.55552H14.4444C14.7516 5.55552 15 5.80385 15 6.11107V14.4444ZM4.44442 17.7788H15.5555V15.5555H14.4444C14.1372 15.5555 13.8889 15.3072 13.8889 15V6.66663H6.11109V15C6.11109 15.3072 5.86276 15.5555 5.55554 15.5555H4.44442V17.7788ZM7.91665 11.6661C7.91665 9.86777 8.83165 8.45943 9.99998 8.45943C11.1683 8.45943 12.0833 9.86777 12.0833 11.6661C12.0833 13.4644 11.1683 14.8733 9.99998 14.8733C8.83165 14.8733 7.91665 13.4644 7.91665 11.6661ZM8.74998 11.6667C8.74998 13.0655 9.40887 14.0405 9.99998 14.0405C10.5916 14.0405 11.25 13.0655 11.25 11.6667C11.25 10.2683 10.5911 9.29332 9.99998 9.29332C9.40887 9.29332 8.74998 10.2678 8.74998 11.6667Z"/>
</svg>