<svg width="41" height="40" viewBox="0 0 41 40" fill="none" xmlns="http://www.w3.org/2000/svg">
  <path d="M32.0239 16.4C31.4239 15.8 30.7239 15.5 29.8239 15.5C29.2239 15.5 28.7239 15.7 28.2239 15.9C27.7239 16.2 27.3239 16.6 27.0239 17.1C26.2239 16.7 25.3239 16.3 24.4239 16C23.4239 15.7 22.4239 15.6 21.3239 15.5L23.2239 11.3L26.8239 12.3V12.2C27.1239 13.1 28.0239 13.8 29.0239 13.8C30.3239 13.8 31.4239 12.8 31.4239 11.5C31.4239 10.2 30.3239 9.09998 29.0239 9.09998C28.1239 9.09998 27.3239 9.59997 26.9239 10.4L23.0239 9.19997C22.8239 9.09997 22.6239 9.19997 22.3239 9.29997C22.1239 9.39997 21.9239 9.49997 21.8239 9.79997L19.3239 15.5C18.2239 15.6 17.2239 15.7 16.3239 16C15.4239 16.3 14.5239 16.6 13.7239 17C13.4239 16.5 13.0239 16.1 12.5239 15.8C12.0239 15.5 11.5239 15.4 10.9239 15.4C10.0239 15.4 9.32391 15.7 8.72391 16.3C8.12391 16.9 7.8239 17.6 7.8239 18.5C7.8239 19.1 8.0239 19.7 8.3239 20.2C8.7239 20.7 9.1239 21.1 9.6239 21.3C9.5239 21.6 9.4239 21.9 9.4239 22.2C9.3239 22.5 9.3239 22.8 9.3239 23.1C9.3239 24.2 9.62391 25.2 10.2239 26.1C10.8239 27.1 11.5239 27.9 12.5239 28.6C13.5239 29.3 14.7239 29.9 16.0239 30.3C17.3239 30.7 18.8239 30.9 20.3239 30.9C21.8239 30.9 23.2239 30.7 24.6239 30.3C25.9239 29.9 27.1239 29.3 28.1239 28.6C29.1239 27.9 29.9239 27.1 30.4239 26.1C31.0239 25.2 31.3239 24.1 31.3239 23.1C31.3239 22.8 31.3239 22.5 31.2239 22.2C31.1239 21.9 31.1239 21.6 31.0239 21.3C31.5239 21.1 32.0239 20.7 32.3239 20.2C32.6239 19.7 32.8239 19.1 32.8239 18.5C32.9239 17.8 32.6239 17 32.0239 16.4ZM29.0239 10.7C29.5239 10.7 29.9239 11.1 29.9239 11.6C29.9239 12.1 29.5239 12.5 29.0239 12.5C28.5239 12.5 28.1239 12.1 28.1239 11.6C28.1239 11.1 28.5239 10.7 29.0239 10.7ZM9.8239 19.5C9.6239 19.2 9.52391 19 9.52391 18.6C9.52391 18.2 9.62391 17.8 10.0239 17.5C10.3239 17.2 10.7239 17 11.1239 17C11.4239 17 11.7239 17.1 11.9239 17.2C12.1239 17.4 12.4239 17.6 12.5239 17.9C12.1239 18.2 11.7239 18.5 11.4239 18.9C11.1239 19.3 10.8239 19.6 10.5239 20C10.2239 20 9.9239 19.8 9.8239 19.5ZM20.4239 29.3C17.0239 29.3 11.3239 27.6 11.3239 23.3C11.3239 19 16.9239 17.3 20.4239 17.3C23.9239 17.3 29.5239 18.9 29.5239 23.3C29.5239 27.6 23.8239 29.3 20.4239 29.3ZM31.0239 19.5C30.8239 19.8 30.6239 20 30.3239 20.1C30.0239 19.7 29.7239 19.3 29.4239 19C29.1239 18.7 28.7239 18.3 28.3239 18C28.4239 17.7 28.6239 17.5 28.9239 17.3C29.1239 17.1 29.4239 17.1 29.7239 17.1C30.1239 17.1 30.5239 17.3 30.8239 17.6C31.1239 17.9 31.3239 18.3 31.3239 18.7C31.3239 19 31.3239 19.2 31.0239 19.5Z"/>
  <path d="M25.1239 23.4C26.0076 23.4 26.7239 22.6836 26.7239 21.7999C26.7239 20.9163 26.0076 20.2 25.1239 20.2C24.2402 20.2 23.5239 20.9163 23.5239 21.7999C23.5239 22.6836 24.2402 23.4 25.1239 23.4Z"/>
  <path d="M15.7239 23.4C16.6076 23.4 17.3239 22.6836 17.3239 21.7999C17.3239 20.9163 16.6076 20.2 15.7239 20.2C14.8403 20.2 14.1239 20.9163 14.1239 21.7999C14.1239 22.6836 14.8403 23.4 15.7239 23.4Z"/>
  <path d="M24.3239 24.9C24.0239 24.9 23.8239 24.9 23.6239 25.1C23.3239 25.3 22.8239 25.6 22.2239 25.8C21.1239 26.2 19.7239 26.2 18.5239 25.8C17.9239 25.6 17.5239 25.3 17.1239 25.1C16.9239 24.9 16.7239 24.9 16.4239 24.9C16.1239 24.9 15.9239 25.1 15.8239 25.2C15.7239 25.4 15.6239 25.6 15.6239 25.9C15.6239 26.2 15.7239 26.4 15.9239 26.5C16.5239 27 17.1239 27.3 17.9239 27.6C19.4239 28.1 21.0239 28.1 22.6239 27.6C23.4239 27.4 24.1239 27 24.6239 26.5C24.8239 26.3 24.9239 26.2 24.9239 25.9C24.9239 25.7 24.8239 25.4 24.7239 25.2C24.8239 25.1 24.5239 25 24.3239 24.9Z"/>
</svg>
