<svg xmlns="http://www.w3.org/2000/svg" width="20" height="20" viewBox="0 0 20 20" fill="none">
  <path fill-rule="evenodd" clip-rule="evenodd" d="M14.9422 5.0439C10.8422 0.944457 4.75835 0.856123 2.81446 2.80057C0.870576 4.74446 0.957798 10.8283 5.0578 14.9278C6.93169 16.8017 9.38113 18.0072 11.955 18.3217C12.38 18.3739 12.7989 18.3989 13.205 18.3989C14.9128 18.3989 16.4028 17.9539 17.1856 17.1711C19.1295 15.2278 19.0422 9.1439 14.9422 5.0439ZM17.1128 14.8811C17.0595 14.8695 17.0034 14.8683 16.9467 14.8806C16.7206 14.9245 16.5728 15.1433 16.6167 15.3689C16.655 15.5683 16.675 15.7506 16.6756 15.9089C16.6756 15.9454 16.6727 15.9775 16.6698 16.0103V16.0104V16.0104L16.6698 16.0104L16.6684 16.0272C16.5834 16.1661 16.495 16.2911 16.3995 16.3861C16.3566 16.429 16.3018 16.4696 16.2476 16.5098L16.2145 16.5345C16.1611 16.5389 16.1072 16.5433 16.0484 16.5433L15.9717 16.5417C15.77 16.535 15.5889 16.6883 15.5534 16.8917C13.5422 17.6917 9.22113 17.5206 5.8428 14.1428C2.82669 11.1261 2.36613 7.35446 2.87113 5.1489C2.94891 5.24057 3.06113 5.30001 3.18391 5.30001C3.21446 5.30001 3.24446 5.29668 3.27558 5.28946C3.50002 5.23946 3.64113 5.01668 3.59058 4.79168C3.52446 4.49001 3.49058 4.2189 3.49058 3.98557C3.49058 3.92668 3.4928 3.86946 3.49724 3.81557C3.49877 3.79459 3.49506 3.77493 3.49132 3.75513C3.48962 3.74609 3.48791 3.73702 3.48669 3.72779C3.49928 3.71205 3.51169 3.69544 3.52409 3.67884C3.54891 3.64563 3.57372 3.61242 3.60002 3.58612C3.67946 3.50723 3.77891 3.43223 3.8878 3.36057C3.94891 3.35057 4.02058 3.3439 4.11113 3.3439C4.18613 3.3439 4.26558 3.34835 4.35002 3.35668C4.57613 3.38279 4.78335 3.21446 4.80724 2.98501C4.80786 2.97855 4.80677 2.97244 4.80568 2.96629C4.8048 2.96132 4.80391 2.95633 4.80391 2.95112C5.36446 2.78223 6.05391 2.68001 6.82613 2.68001C8.99613 2.68001 11.8072 3.47946 14.1567 5.82946C17.2006 8.8739 17.64 12.6845 17.1128 14.8811ZM9.33945 5.76449C9.46668 5.76449 9.59223 5.70671 9.67445 5.59671C9.81168 5.41227 9.7739 5.15115 9.58945 5.01338C9.27445 4.77838 8.9639 4.56171 8.66168 4.36115C8.46834 4.23393 8.21057 4.28727 8.0839 4.47893C7.95668 4.67115 8.01001 4.93004 8.20168 5.05671C8.49168 5.24838 8.78945 5.45671 9.09168 5.68171C9.16612 5.73782 9.25334 5.76449 9.33945 5.76449ZM14.2128 10.0745C14.3961 9.93506 14.6584 9.97061 14.7972 10.1523C15.0356 10.4634 15.2572 10.7695 15.4622 11.0684C15.5928 11.2578 15.545 11.5178 15.355 11.6478C15.2828 11.6973 15.2006 11.7212 15.1195 11.7212C14.9867 11.7212 14.8567 11.6584 14.7756 11.5406C14.5778 11.2523 14.3645 10.9584 14.135 10.6589C13.995 10.4762 14.03 10.2145 14.2128 10.0745ZM5.83446 3.77336C6.14224 3.89948 6.46891 4.0517 6.80557 4.22725C6.86668 4.25948 6.9328 4.27448 6.9978 4.27448C7.14835 4.27448 7.29335 4.19336 7.3678 4.05059C7.47391 3.8467 7.39502 3.59503 7.19113 3.48836C6.83168 3.30059 6.48168 3.13725 6.15057 3.0017C5.93835 2.91448 5.69446 3.0167 5.60668 3.22948C5.52002 3.44336 5.62224 3.68614 5.83446 3.77336ZM15.7967 12.355C15.9995 12.2439 16.2522 12.3173 16.3633 12.5178C16.5561 12.8667 16.7295 13.2117 16.8778 13.5423C16.9717 13.7528 16.8778 13.9989 16.6678 14.0928C16.6122 14.1173 16.5545 14.1289 16.4972 14.1289C16.3378 14.1289 16.1861 14.0373 16.1167 13.8828C15.9783 13.5739 15.8161 13.2506 15.6339 12.9217C15.5228 12.72 15.5956 12.4667 15.7967 12.355ZM11.4711 7.54501C11.5828 7.54501 11.6939 7.50056 11.7761 7.41223C11.9328 7.24334 11.9239 6.98001 11.755 6.82334C11.4717 6.55945 11.1911 6.30889 10.9139 6.07112C10.7395 5.92223 10.4767 5.94167 10.3261 6.11612C10.1761 6.29056 10.1967 6.55389 10.3711 6.70389C10.6406 6.93501 10.9128 7.17834 11.1872 7.43278C11.2678 7.50834 11.3695 7.54501 11.4711 7.54501ZM13.6822 9.4317C13.6034 9.50115 13.505 9.53559 13.4072 9.53559C13.2917 9.53559 13.1767 9.48781 13.0939 9.39392C12.8595 9.12781 12.6134 8.85837 12.3545 8.58726C12.1956 8.42115 12.2017 8.1567 12.3684 7.99781C12.5334 7.84003 12.7984 7.84448 12.9578 8.0117C13.2239 8.29059 13.4778 8.56837 13.72 8.84337C13.8722 9.01615 13.8556 9.27948 13.6822 9.4317ZM14.4722 16.2178C14.16 16.1078 13.8284 15.9706 13.4856 15.8084C13.275 15.7089 13.0284 15.8006 12.9306 16.0073C12.8322 16.2156 12.9217 16.4639 13.1295 16.5623C13.4984 16.7356 13.8572 16.8845 14.1956 17.0034C14.2411 17.0195 14.2878 17.0273 14.3339 17.0273C14.5061 17.0273 14.6667 16.9206 14.7267 16.7489C14.8034 16.5317 14.6895 16.2934 14.4722 16.2178ZM8.45057 12.7495C8.60557 12.5795 8.86946 12.5673 9.03946 12.7217C9.31612 12.9734 9.59112 13.2117 9.86335 13.4373C10.0406 13.5845 10.0656 13.8473 9.9189 14.0245C9.83668 14.1234 9.71723 14.1751 9.59779 14.1751C9.5039 14.1751 9.41001 14.1434 9.33168 14.0795C9.04946 13.8456 8.76501 13.5989 8.47834 13.3384C8.30779 13.1834 8.29557 12.9201 8.45057 12.7495ZM4.10612 6.28836C4.01279 6.0778 3.7639 5.98391 3.55612 6.07669C3.34557 6.17002 3.25112 6.41613 3.34446 6.62669C3.4939 6.96225 3.66501 7.30725 3.85446 7.65225C3.93001 7.79058 4.07279 7.86891 4.22001 7.86891C4.28724 7.86891 4.35612 7.8528 4.41946 7.81725C4.62112 7.70725 4.69501 7.45391 4.58446 7.25169C4.40668 6.92669 4.24612 6.6028 4.10612 6.28836ZM11.1617 14.4306C11.47 14.6478 11.7722 14.8478 12.0667 15.03C12.2628 15.1511 12.3228 15.4078 12.2022 15.6039C12.1233 15.7311 11.9867 15.8011 11.8472 15.8011C11.7722 15.8011 11.6967 15.7811 11.6283 15.7389C11.3195 15.5478 11.0033 15.3389 10.6811 15.1111C10.4933 14.9789 10.4483 14.7189 10.5811 14.5306C10.7128 14.3428 10.9728 14.2972 11.1617 14.4306ZM7.11946 10.7789C6.96668 10.6056 6.7028 10.5906 6.53113 10.7434C6.35835 10.8956 6.3428 11.1595 6.49557 11.3317C6.73891 11.6061 6.99446 11.8828 7.26335 12.16C7.34502 12.2445 7.45391 12.2873 7.5628 12.2873C7.66724 12.2873 7.77168 12.2484 7.85224 12.17C8.0178 12.01 8.02224 11.7461 7.86224 11.5806C7.60224 11.3117 7.35502 11.0445 7.11946 10.7789ZM4.85945 8.52668C5.04945 8.39557 5.30834 8.44501 5.43834 8.63556C5.63556 8.92445 5.84834 9.2189 6.07723 9.51723C6.21723 9.70001 6.18223 9.96168 5.99945 10.1017C5.92334 10.1589 5.83445 10.1872 5.74668 10.1872C5.62112 10.1872 5.49668 10.1306 5.41501 10.0239C5.17723 9.71279 4.95556 9.40612 4.75056 9.10556C4.62056 8.91557 4.66945 8.65612 4.85945 8.52668Z"/>
</svg>