<svg width="41" height="40" viewBox="0 0 41 40" fill="none" xmlns="http://www.w3.org/2000/svg">
  <path d="M9.64429 18.6871C16.3443 15.6871 20.8443 13.8871 23.1443 12.8871C29.4443 10.1871 30.8443 9.68707 31.8443 9.68707C32.0443 9.68707 32.5443 9.68707 32.6443 9.98707C32.8443 10.2871 32.9443 10.4871 32.9443 10.6871C32.9443 10.8871 32.9443 11.3871 32.9443 11.4871C32.6443 15.1871 31.1443 23.9871 30.2443 27.9871C29.9443 29.6871 29.2443 30.2871 28.7443 30.2871C27.4443 30.4871 26.4443 29.4871 25.0443 28.5871C23.0443 27.2871 21.8443 26.3871 19.8443 25.0871C17.6443 23.7871 19.0443 22.8871 20.3443 21.5871C20.6443 21.2871 26.5443 15.8871 26.6443 15.3871C26.6443 15.3871 26.6443 15.0871 26.4443 15.0871C26.2443 15.0871 26.1443 15.0871 25.9443 15.0871C25.7443 15.0871 22.4443 17.2871 16.2443 21.5871C15.4443 21.8871 14.5443 22.2871 13.7443 22.2871C12.9443 22.2871 11.4443 21.7871 10.2443 21.4871C8.7443 20.9871 7.5443 20.7871 7.7443 19.9871C7.9443 19.6871 8.64429 19.1871 9.64429 18.6871Z"/>
</svg>
