<svg viewBox="0 0 24 24">
  <path fill-rule="evenodd" clip-rule="evenodd" d="M12.19 6.615l.745 1.572a.348.348 0 00.264.204l1.668.252a.384.384 0 01.192.648l-1.2 1.2a.372.372 0 00-.096.336l.276 1.728a.36.36 0 01-.516.396l-1.488-.816a.336.336 0 00-.336 0l-1.488.816a.361.361 0 01-.516-.396l.276-1.752a.372.372 0 00-.096-.336l-1.2-1.2a.384.384 0 01.192-.648l1.668-.216a.348.348 0 00.264-.204l.744-1.572a.36.36 0 01.648-.012z" fill="#FFB80C"></path>
  <path d="M23.495 20.403l-3.6-6.276.696-.456a.54.54 0 00.228-.564l-.252-1.104-.12-.564.336-.48.624-.936a.552.552 0 000-.624l-.636-.936-.336-.48.12-.564.24-1.092a.565.565 0 00-.228-.576l-.948-.612-.48-.336-.132-.576-.204-1.104a.564.564 0 00-.432-.432l-1.104-.204-.564-.084-.324-.492-.624-.972a.54.54 0 00-.564-.228l-1.092.228-.576.132-.516-.336-.9-.636a.504.504 0 00-.6 0l-.9.636-.48.336-.612-.132L8.423.711a.54.54 0 00-.564.228l-.624.948-.324.516-.588.108-1.104.204a.564.564 0 00-.432.432l-.18 1.08-.132.576-.492.324-.948.612a.564.564 0 00-.228.576l.24 1.092.108.552-.324.48-.624.96a.552.552 0 000 .624l.636.936.324.48-.12.564-.24 1.092a.54.54 0 00.228.564l.696.456-3.612 6.288a.792.792 0 00.108.972.84.84 0 00.972.18l2.748-1.368.192 3.06a.828.828 0 00.636.744h.192a.817.817 0 00.708-.408l2.832-4.908 1.008-.204.576-.132.48.336.936.636a.504.504 0 00.6 0l.936-.636.48-.336.576.132 1.008.204 2.832 4.908a.815.815 0 00.708.408h.192a.828.828 0 00.636-.744l.192-3.06 2.748 1.416a.84.84 0 00.972-.18.792.792 0 00.108-1.02zm-17.88 0l-.096-1.56a.84.84 0 00-.42-.66.816.816 0 00-.78 0l-1.404.696 1.776-3.084.096.54a.564.564 0 00.432.432l1.104.204.588.108.324.492-1.62 2.832zm7.872-4.224l-.408-.084-.36.24-.684.468a.396.396 0 01-.456 0l-.684-.468-.36-.24-.408.084-.816.168a.397.397 0 01-.42-.168l-.444-.696-.24-.36-.432-.084-.768-.156a.408.408 0 01-.324-.324l-.144-.816-.084-.432-.36-.228-.696-.456a.396.396 0 01-.168-.42l.168-.816.084-.408-.24-.36-.516-.684a.396.396 0 010-.456l.468-.684.24-.36-.084-.408-.168-.828a.396.396 0 01.168-.42l.696-.456.36-.228.084-.432.144-.816a.408.408 0 01.372-.312l.816-.144.384-.084.24-.36.444-.696a.396.396 0 01.42-.168l.816.168.408.084.36-.24.684-.468a.396.396 0 01.456 0l.684.468.36.24.408-.084.816-.168a.396.396 0 01.42.168l.444.696.24.36.432.084.816.144a.408.408 0 01.324.324l.144.816.084.432.36.228.696.456a.397.397 0 01.168.42l-.168.816-.084.372.24.36.468.684a.396.396 0 010 .456l-.468.684-.24.36.084.408.168.816a.397.397 0 01-.168.42l-.696.456-.36.228-.084.432-.144.816a.409.409 0 01-.324.324l-.816.144-.432.084-.24.36-.444.696a.397.397 0 01-.42.168l-.816-.12zm5.808 1.98a.816.816 0 00-.78 0 .84.84 0 00-.42.66l-.096 1.584-1.632-2.844.324-.492.588-.108 1.104-.204a.564.564 0 00.432-.432l.096-.54 1.776 3.084-1.392-.708z"></path>
</svg>