<svg xmlns="http://www.w3.org/2000/svg" width="20" height="20" viewBox="0 0 20 20" fill="none">
  <path fill-rule="evenodd" clip-rule="evenodd" d="M17.5556 7.41554C18.07 6.06777 17.5906 4.85777 17.0239 4.23221C16.3134 3.44666 14.8467 2.27221 13.3056 1.54832C12.2328 1.04499 9.45337 0.324989 6.81559 4.50721C4.94226 7.47666 4.89837 9.72054 4.92781 10.3333C4.8567 10.3917 4.78948 10.4561 4.73337 10.5339L2.43059 13.7294C2.08281 14.2122 2.19281 14.8889 2.68614 15.2455C2.68614 15.2455 3.8217 16.0255 5.05337 16.8544C6.25415 17.6611 7.28073 18.5443 7.34724 18.6016L7.34726 18.6016L7.35059 18.6044L7.39003 18.6361C7.57614 18.77 7.79503 18.84 8.02003 18.84C8.07837 18.84 8.13726 18.8355 8.19614 18.8261C8.4817 18.78 8.7317 18.625 8.90059 18.3905L11.2034 15.195C11.2271 15.1619 11.2458 15.1268 11.2647 15.0915L11.2647 15.0914L11.2756 15.0711C11.5828 15.1361 11.9423 15.1811 12.3384 15.1811C13.5967 15.1811 15.18 14.7455 16.2978 13.195C17.205 11.9339 17.4973 10.9867 17.5823 10.415C17.6873 9.71221 17.4939 8.87832 17.0967 8.38221C17.2745 8.0511 17.465 7.65166 17.5556 7.41554ZM4.75559 12.3711C4.94448 12.4661 5.11892 12.5572 5.25392 12.6322L4.62781 13.5711L4.62779 13.5711C4.61946 13.5661 4.61114 13.5611 4.60281 13.5572C4.4417 13.4639 4.28448 13.3739 4.10559 13.2883L4.75559 12.3711ZM8.02448 17.7194C7.78614 17.5155 6.81892 16.7028 5.67281 15.9322C5.35753 15.7203 5.04857 15.5114 4.76379 15.3189L4.76375 15.3189C3.97366 14.7849 3.36971 14.3767 3.33337 14.3767L3.61392 13.9811C3.81503 14.0667 3.98337 14.1611 4.1867 14.2783L4.20331 14.2879L4.20334 14.2879C4.31349 14.3512 4.43065 14.4186 4.56392 14.49C4.62614 14.5239 4.69392 14.54 4.76059 14.54C4.89614 14.54 5.02781 14.4744 5.10781 14.3544L6.19281 12.7272C6.25503 12.6339 6.27726 12.5194 6.25337 12.4094C6.23003 12.3 6.16337 12.2039 6.06837 12.1439C6.05114 12.1328 5.73059 11.9317 5.24448 11.6822L5.59392 11.1894L5.72503 11.2594L5.72775 11.2605L5.72777 11.2605C5.80635 11.2902 7.4839 11.9247 8.50448 12.7267C9.65267 13.6292 10.1511 14.4143 10.1589 14.4265L10.1589 14.4267L10.3011 14.545L8.02448 17.7194ZM16.4823 10.2511C16.415 10.7017 16.1717 11.4661 15.395 12.5455C13.8361 14.7078 11.3328 13.9467 11.2295 13.915C11.2177 13.9113 11.2059 13.9108 11.1941 13.9104C11.1848 13.9101 11.1755 13.9097 11.1661 13.9078C11.1542 13.8924 11.143 13.8764 11.1317 13.8604C11.1069 13.825 11.082 13.7896 11.0495 13.7605C10.8761 13.5061 10.2973 12.7239 9.19059 11.8533C8.11614 11.0089 6.50559 10.3689 6.17003 10.2405C6.12796 10.2152 6.08327 10.1961 6.03901 10.1772L6.03503 10.1755C6.02837 9.58554 6.14614 7.64943 7.75448 5.09999C9.84281 1.78999 11.8323 2.08443 12.8328 2.55388C14.235 3.21277 15.5611 4.27166 16.2 4.97721C16.4867 5.29388 16.8756 6.07999 16.5167 7.01943C16.4167 7.2811 16.1823 7.74832 16.0273 8.01832C15.5373 7.84554 15.1011 7.82277 14.7073 7.9661C14.2384 8.13666 13.9039 8.51332 13.6395 8.94721C10.6134 8.41999 9.52503 5.59888 9.47892 5.47554C9.39892 5.25999 9.16114 5.14999 8.94448 5.22888C8.72892 5.30832 8.61837 5.54721 8.69726 5.76277C8.74837 5.90166 9.92781 9.00555 13.2417 9.72221L13.2389 9.72832C13.1434 9.93777 13.2367 10.185 13.4461 10.28C13.5023 10.305 13.56 10.3172 13.6184 10.3172C13.7767 10.3172 13.9284 10.2261 13.9978 10.0728C14.0678 9.91832 14.1367 9.77555 14.2061 9.64277C14.2234 9.61777 14.2373 9.59166 14.2484 9.56277C14.4745 9.14443 14.7061 8.85388 14.9928 8.74943C15.2473 8.6561 15.5756 8.70666 15.9856 8.8961C15.9921 8.90282 15.9982 8.90981 16.0042 8.91676L16.0042 8.91677C16.0156 8.92993 16.027 8.94298 16.0411 8.95388C16.0428 8.95527 16.0441 8.95679 16.0453 8.95831L16.0453 8.95832C16.0466 8.95985 16.0478 8.96138 16.0495 8.96277C16.0629 8.97225 16.0776 8.97769 16.0925 8.98317C16.1029 8.987 16.1133 8.99085 16.1234 8.9961C16.1336 9.00142 16.1435 9.00728 16.1533 9.01312C16.1732 9.02499 16.1931 9.03681 16.2161 9.04388C16.3456 9.16554 16.5639 9.70388 16.4823 10.2511ZM10.9011 9.1961C10.6911 9.10665 10.445 9.20554 10.3556 9.41721C10.2989 9.55054 10.2217 9.69832 10.1261 9.8561C10.0067 10.0528 10.0695 10.3089 10.2661 10.4283C10.3339 10.4694 10.4084 10.4889 10.4823 10.4889C10.6228 10.4889 10.7606 10.4178 10.8389 10.2883C10.9556 10.0961 11.0512 9.91221 11.1234 9.74221C11.2128 9.52999 11.1134 9.28554 10.9011 9.1961ZM9.15449 11.1061C9.2606 10.9911 9.38171 10.8544 9.50782 10.7039C9.6556 10.5272 9.91837 10.5028 10.0945 10.6511C10.2712 10.7989 10.295 11.0617 10.1478 11.2383C10.0117 11.4011 9.88115 11.5478 9.76671 11.6717C9.68448 11.7605 9.57282 11.8055 9.4606 11.8055C9.35948 11.8055 9.25837 11.7694 9.17782 11.695C9.00893 11.5389 8.99837 11.2755 9.15449 11.1061Z"/>
</svg>