<svg xmlns="http://www.w3.org/2000/svg" width="20" height="20" viewBox="0 0 20 20" fill="none">
  <path fill-rule="evenodd" clip-rule="evenodd" d="M16.3306 8.81666C16.7583 9.3111 18.5139 11.3889 18.8195 12.4167C19.0145 13.0667 18.8867 14.3444 18.3861 15.1333C18.0361 15.6833 17.6139 15.85 17.3139 15.9C16.0917 16.0833 15.4806 15.4667 15.4195 15.4C15.3861 15.3667 15.3639 15.3333 15.3417 15.2944L14.8639 14.4222C14.8472 14.4222 14.8306 14.4167 14.8195 14.4111C14.1806 15.1167 12.4695 16.4389 8.55834 16.4389C8.51457 16.4389 8.46945 16.4375 8.42365 16.4362C8.37644 16.4348 8.3285 16.4333 8.28056 16.4333C8.27501 16.8444 8.28612 17.2667 8.33056 17.7222C8.33056 17.7361 8.32917 17.7486 8.32779 17.7611C8.3264 17.7736 8.32501 17.7861 8.32501 17.8C8.32223 17.8139 8.32362 17.8278 8.32501 17.8417C8.3264 17.8555 8.32779 17.8694 8.32501 17.8833C8.32352 17.8863 8.32203 17.8889 8.32065 17.8913C8.31687 17.8978 8.3139 17.903 8.3139 17.9111L8.28056 17.9944C8.27648 18.0026 8.27239 18.0111 8.26823 18.0198C8.25539 18.0465 8.24178 18.0748 8.22501 18.1C8.20835 18.1222 8.19169 18.1389 8.16949 18.1611L8.16945 18.1611C8.14167 18.1889 8.1139 18.2111 8.08056 18.2333L8.08055 18.2333C8.05833 18.25 8.03611 18.2667 8.00834 18.2778C7.96945 18.2944 7.93056 18.3055 7.88612 18.3167C7.87779 18.3167 7.86945 18.3194 7.86112 18.3222C7.85279 18.325 7.84445 18.3278 7.83612 18.3278C7.8139 18.3333 7.79724 18.3333 7.78057 18.3333H7.78056H7.77501C7.74168 18.3333 7.70835 18.3278 7.67502 18.3222L7.67501 18.3222C1.16945 17.0722 1.09167 11.0778 1.09167 11.0167C1.09167 10.9611 1.10834 10.9055 1.12501 10.8555L1.11945 10.85C1.1639 10.7 2.35834 7.10555 8.37501 4.63888C8.59167 3.13888 9.8639 2.51666 11.3139 1.8111L11.8917 1.53333L12.0861 2.14444C12.1168 2.24274 12.151 2.34274 12.1857 2.44445C12.2137 2.52667 12.2421 2.61 12.2695 2.69444L12.2785 2.72136C12.5812 3.61837 12.8911 4.53647 12.8306 5.40555L15.2528 6.92221C15.6528 7.21666 15.9195 7.58888 16.0639 8.01666L16.3306 8.81666ZM14.6195 7.83332L12.975 6.80555C12.47 7.34444 11.9145 7.97777 11.4695 8.73333C12.0972 9.24444 14.2306 10.9778 15.7528 11.9944C16.0695 11.5889 16.3972 11.2333 16.6417 10.9722C16.225 10.4222 15.775 9.86666 15.4195 9.4611C15.375 9.40555 15.3361 9.34444 15.3139 9.27777L15.0083 8.37221C14.9361 8.1611 14.8028 7.97221 14.6195 7.83332ZM10.3367 11.8278C9.12001 12.7389 8.43667 14.0944 8.29779 15.8778C11.8145 15.9278 13.4917 14.8889 14.1978 14.2333C13.3311 13.9778 12.07 13.5833 11.4756 13.2611C10.92 12.9611 10.5645 12.3222 10.3367 11.8278ZM12.0028 12.2833C12.5695 12.5889 14.0472 13.0389 14.9306 13.2889C15.0583 13.0111 15.2256 12.7222 15.4195 12.4444C13.6863 11.2784 11.1997 9.23251 10.9506 9.0276C10.9386 9.01772 10.9318 9.01212 10.9306 9.0111L10.7583 8.86666L10.8695 8.6611C11.3361 7.80555 11.9417 7.09999 12.4972 6.50555L11.9306 6.15555C11.7306 6.02777 11.6417 5.78888 11.6917 5.5611H11.6861C11.8361 4.88888 11.5306 3.97777 11.2306 3.09444C9.97501 3.73888 9.47501 4.15555 9.45279 5.04444L9.44168 5.4111L9.09723 5.54444C3.75834 7.63888 2.39723 10.6167 2.20834 11.1111C2.24167 11.7555 2.64167 15.8111 7.17501 17.0611C7.05279 14.05 8.1139 11.8 10.275 10.5389C10.4361 10.4444 10.6361 10.4389 10.8028 10.5222C11.0139 10.6278 11.0917 10.8 11.2306 11.1111C11.3695 11.4333 11.6695 12.1055 12.0028 12.2833ZM17.1478 14.8C17.27 14.7833 17.3811 14.6444 17.4478 14.5389C17.7756 14.0167 17.8589 13.0889 17.7533 12.7333C17.67 12.45 17.3589 11.9611 16.9811 11.4278C16.22 12.2444 15.7145 12.9222 15.4645 13.4555C15.57 13.5055 15.6645 13.5778 15.72 13.6833L16.27 14.6722C16.3533 14.7278 16.6367 14.8778 17.1478 14.8ZM14.1145 8.60554C14.1145 8.98907 13.8036 9.29998 13.42 9.29998C13.0365 9.29998 12.7256 8.98907 12.7256 8.60554C12.7256 8.22201 13.0365 7.91109 13.42 7.91109C13.8036 7.91109 14.1145 8.22201 14.1145 8.60554Z"/>
</svg>