<svg xmlns="http://www.w3.org/2000/svg" width="20" height="20" viewBox="0 0 20 20" fill="none">
  <path fill-rule="evenodd" clip-rule="evenodd" d="M18.59 11.317C18.6009 11.3246 18.6118 11.3322 18.6217 11.3411L18.5728 11.3956C18.7794 13.9289 18.1605 16.1967 17.1822 17.1745C16.33 18.0267 14.4994 18.6122 12.3661 18.6122C9.78887 18.6122 6.76998 17.7578 4.49887 15.4867C0.34776 11.3361 0.928872 4.68557 2.81109 2.80391C4.69332 0.922239 11.3433 0.341128 15.4944 4.49168C17.4611 6.45779 18.3567 8.98224 18.5639 11.2978C18.5723 11.3047 18.5811 11.3109 18.59 11.317ZM6.67109 2.51946C5.24443 2.65946 4.10276 3.08335 3.59665 3.58946C3.01665 4.16946 2.54221 5.57946 2.48332 7.30113C3.34776 5.05779 5.02776 3.43613 6.67109 2.51946ZM8.91721 2.54057C6.78054 2.96668 3.00221 5.53946 2.74554 10.0295C3.11443 11.6472 3.89165 13.3083 5.28443 14.7011C7.34832 16.7645 9.99721 17.4839 12.2244 17.505C12.4844 14.2245 14.4355 11.9367 16.2116 11.1778C16.6394 10.9956 17.0494 10.9117 17.4255 10.9145C17.1733 9.00835 16.3805 6.94946 14.7089 5.27724C12.9916 3.56002 10.8661 2.77002 8.91721 2.54057ZM13.0611 17.4811C14.6094 17.37 15.86 16.9256 16.3967 16.3889C17.0778 15.7083 17.6178 13.8867 17.505 11.7545C17.2255 11.7334 16.8989 11.7906 16.5389 11.9445C14.96 12.6195 13.3161 14.7122 13.0611 17.4811ZM13.6911 8.52226C13.3955 8.17892 13.0561 7.81837 12.6489 7.40948L11.9844 8.07503C11.9033 8.1567 11.7966 8.19726 11.69 8.19726C11.5833 8.19726 11.4766 8.15614 11.3955 8.07503C11.2328 7.91226 11.2328 7.64837 11.3955 7.48559L12.0522 6.82892C11.6461 6.44559 11.2644 6.11614 10.89 5.82114L10.2883 6.41003C10.2078 6.48948 10.1022 6.52892 9.9972 6.52892C9.88943 6.52892 9.78109 6.4867 9.69943 6.40337C9.53831 6.23892 9.54165 5.97503 9.70609 5.81392L10.2122 5.31892C9.7272 4.98837 9.23831 4.70781 8.70887 4.45337C8.50165 4.35392 8.41387 4.10503 8.51387 3.89726C8.61332 3.69003 8.86054 3.6017 9.06998 3.70226C9.68943 3.99948 10.255 4.33114 10.8172 4.72614L11.3755 4.17948C11.54 4.01948 11.8033 4.0217 11.965 4.18614C12.1261 4.35059 12.1228 4.61448 11.9583 4.77559L11.4916 5.23226C11.8633 5.53003 12.2416 5.85948 12.6422 6.23837L13.3689 5.5117C13.5316 5.34892 13.7955 5.34892 13.9583 5.5117C14.1211 5.67448 14.1211 5.93837 13.9583 6.10114L13.2389 6.82059C13.6428 7.22614 13.9839 7.58726 14.2828 7.93114L14.9705 7.24281C15.1333 7.08003 15.3972 7.08003 15.56 7.24281C15.7228 7.40559 15.7228 7.66948 15.56 7.83226L14.8122 8.58003C15.1033 8.96114 15.3633 9.34503 15.6222 9.77448C15.7411 9.9717 15.6772 10.2278 15.4805 10.3467C15.4133 10.3867 15.3389 10.4061 15.2655 10.4061C15.1239 10.4061 14.9866 10.3345 14.9078 10.205C14.6861 9.8367 14.4639 9.50337 14.2172 9.17448L13.6278 9.76392C13.5466 9.84559 13.44 9.88614 13.3333 9.88614C13.2266 9.88614 13.12 9.84503 13.0389 9.76392C12.8761 9.60114 12.8761 9.33726 13.0389 9.17448L13.6911 8.52226Z"/>
</svg>