<svg xmlns="http://www.w3.org/2000/svg" width="16" height="16" viewBox="0 0 16 16" fill="none">
  <path d="M13.8313 7.04867C14.094 6.79267 14.012 6.54001 13.6493 6.48734L10.6093 6.04534C10.2467 5.99267 9.81667 5.68067 9.65467 5.35134L8.29534 2.59667C8.13334 2.26801 7.86734 2.26801 7.70534 2.59667L6.34534 5.35267C6.18334 5.68134 5.75334 5.99334 5.39067 6.04601L2.35067 6.48801C1.988 6.54067 1.906 6.79334 2.168 7.04934L4.36734 9.19334C4.63 9.44934 4.794 9.95467 4.732 10.316L4.21334 13.3427C4.15134 13.704 4.366 13.86 4.69067 13.6893L7.40934 12.26C7.734 12.0893 8.26467 12.0893 8.58934 12.26L11.308 13.6893C11.6327 13.86 11.8473 13.704 11.7853 13.3427L11.266 10.3153C11.204 9.95401 11.368 9.44867 11.6307 9.19267L13.8313 7.04867Z"/>
</svg>