<svg width="20" height="20" viewBox="0 0 20 20" fill="none" xmlns="http://www.w3.org/2000/svg">
  <path d="M16.5305 4.16552C13.2183 0.571074 7.59387 0.302185 3.99276 3.5633C2.25387 5.1383 1.23832 7.29496 1.13332 9.63607C1.02721 11.9972 1.85721 14.2611 3.46998 16.0116C5.23165 17.9233 7.6472 18.8944 10.0639 18.8944C12.1922 18.8944 14.3222 18.1416 16.0078 16.6139C17.7461 15.0389 18.7616 12.8822 18.8666 10.5411C18.9733 8.17996 18.1433 5.91607 16.5305 4.16552ZM4.73887 4.38718C6.21276 3.05163 8.07554 2.39274 9.93665 2.39274C10.4961 2.39274 11.055 2.45607 11.6039 2.57496C11.5655 3.53441 11.1478 4.4383 10.3505 5.26718C8.27054 7.43107 5.70832 8.06941 2.38054 8.58829C2.68887 6.97552 3.49832 5.51052 4.73887 4.38718ZM4.28665 15.2583C2.87609 13.7277 2.14998 11.7488 2.24276 9.68607C2.24609 9.60607 2.25887 9.52829 2.26498 9.44885C5.76832 8.91274 8.65054 8.23774 10.9516 5.84441C11.845 4.91496 12.3328 3.89274 12.4222 2.79996C13.6433 3.20496 14.7828 3.90941 15.7128 4.91885C16.5411 5.81774 17.1255 6.87329 17.455 8.00774C16.3089 8.09996 15.2861 8.55274 14.4066 9.34941C12.0361 11.4972 10.56 14.8772 10.69 17.7522C8.36998 17.9372 5.98332 17.0989 4.28665 15.2583ZM15.2611 15.79C14.1733 16.7761 12.8728 17.3844 11.5178 17.6405C11.4128 14.7461 13.1155 11.6439 14.9661 9.96663C15.7344 9.27107 16.6455 8.8933 17.6466 8.83052C17.7405 9.3733 17.7816 9.9283 17.7561 10.4911C17.6644 12.5339 16.7789 14.4155 15.2611 15.79Z"/>
</svg>
