<svg width="25" height="24" viewBox="0 0 25 24" xmlns="http://www.w3.org/2000/svg">
  <path fill-rule="evenodd" clip-rule="evenodd" d="M20.8334 18H4.83337C3.7288 18 2.83337 17.1046 2.83337 16V6C2.83337 4.89543 3.7288 4 4.83337 4H20.8334C21.9379 4 22.8334 4.89543 22.8334 6V16C22.8334 17.1046 21.9379 18 20.8334 18ZM4.83337 6V16H20.8334V6H4.83337ZM15.3434 10.31L11.7334 8.23C11.4863 8.08734 11.1819 8.08707 10.9346 8.22929C10.6873 8.37151 10.5344 8.63469 10.5334 8.92V13.09C10.5344 13.3753 10.6873 13.6385 10.9346 13.7807C11.1819 13.9229 11.4863 13.9227 11.7334 13.78L15.3434 11.7C15.5878 11.5537 15.7374 11.2898 15.7374 11.005C15.7374 10.7202 15.5878 10.4563 15.3434 10.31ZM18.8334 20C18.8334 19.4477 18.3857 19 17.8334 19H7.83337C7.28109 19 6.83337 19.4477 6.83337 20C6.83337 20.5523 7.28109 21 7.83337 21H17.8334C18.3857 21 18.8334 20.5523 18.8334 20Z"/>
</svg>

