<svg width="41" height="40" viewBox="0 0 41 40" fill="none" xmlns="http://www.w3.org/2000/svg">
  <path d="M33.3834 19.6506C33.3834 26.6506 27.6834 32.3506 20.5834 32.3506C18.2834 32.3506 16.1834 31.7506 14.3834 30.7506L7.28337 33.0506L9.58337 26.2506C8.38337 24.3506 7.78337 22.0506 7.78337 19.6506C7.78337 12.6506 13.4834 6.95064 20.5834 6.95064C27.5834 6.85064 33.3834 12.5506 33.3834 19.6506ZM20.4834 8.95064C14.4834 8.95064 9.68337 13.7506 9.68337 19.6506C9.68337 21.9506 10.4834 24.1506 11.7834 25.9506L10.4834 29.9506L14.5834 28.6506C16.2834 29.7506 18.2834 30.4506 20.4834 30.4506C26.4834 30.4506 31.2834 25.6506 31.2834 19.7506C31.2834 13.8506 26.4834 8.95064 20.4834 8.95064ZM26.9834 22.5506C26.8834 22.4506 26.6834 22.3506 26.3834 22.1506C26.0834 21.9506 24.4834 21.2506 24.1834 21.1506C23.8834 21.0506 23.6834 20.9506 23.4834 21.3506C23.2834 21.6506 22.6834 22.3506 22.4834 22.5506C22.2834 22.7506 22.0834 22.7506 21.7834 22.6506C21.4834 22.4506 20.4834 22.1506 19.2834 21.1506C18.3834 20.3506 17.6834 19.3506 17.4834 18.9506C17.2834 18.6506 17.4834 18.4506 17.5834 18.3506C17.6834 18.2506 17.8834 17.9506 18.0834 17.8506C18.2834 17.6506 18.2834 17.5506 18.3834 17.3506C18.4834 17.1506 18.4834 16.9506 18.3834 16.8506C18.2834 16.6506 17.6834 15.1506 17.3834 14.5506C17.0834 13.9506 16.8834 14.0506 16.6834 14.0506C16.4834 14.0506 16.2834 14.0506 16.0834 14.0506C15.8834 14.0506 15.4834 14.1506 15.2834 14.4506C14.9834 14.7506 14.1834 15.5506 14.1834 17.0506C14.1834 18.5506 15.2834 20.0506 15.4834 20.2506C15.6834 20.4506 17.6834 23.7506 20.8834 24.9506C24.0834 26.1506 24.0834 25.7506 24.6834 25.7506C25.2834 25.6506 26.5834 24.9506 26.7834 24.2506C27.0834 23.3506 27.0834 22.6506 26.9834 22.5506Z"/>
</svg>